<?xml version="1.0" encoding="UTF-8"?>
<svg width="44px" height="34px" viewBox="0 0 44 34" version="1.1" xmlns="http://www.w3.org/2000/svg" xmlns:xlink="http://www.w3.org/1999/xlink">
    <!-- Generator: Sketch 50.2 (55047) - http://www.bohemiancoding.com/sketch -->
    <title>graduation-cap</title>
    <desc>Created with Sketch.</desc>
    <defs></defs>
    <g id="Vivid.JS" stroke="none" stroke-width="1" fill="none" fill-rule="evenodd">
        <g id="Vivid-Icons" transform="translate(-273.000000, -176.000000)">
            <g id="Icons" transform="translate(37.000000, 169.000000)">
                <g id="graduation-cap" transform="translate(234.000000, 0.000000)">
                    <g transform="translate(2.000000, 7.000000)" id="Shape">
                        <path d="M22,34 L9,26 L9,15 L35,15 L35,26 L22,34 Z M4,27 C2.54056274,27.0027654 1.29191905,25.9525119 1.04461268,24.514178 C0.797306304,23.0758441 1.62345252,21.6688523 3,21.184 L3,13 L5,14 L5,21.184 C6.37654748,21.6688523 7.2026937,23.0758441 6.95538732,24.514178 C6.70808095,25.9525119 5.45943726,27.0027654 4,27 Z" fill="#0C0058"></path>
                        <polygon fill="#FF6E6E" points="22 0.012 43.986 12.512 22 25.013 0.014 12.513"></polygon>
                    </g>
                </g>
            </g>
        </g>
    </g>
</svg>